<svg width="32" height="27" viewBox="0 0 32 27" fill="none" xmlns="http://www.w3.org/2000/svg">
<path d="M30.6667 1.51341C29.3898 2.41404 27.9761 3.10289 26.48 3.55341C25.677 2.63009 24.6098 1.97566 23.4227 1.67864C22.2356 1.38162 20.986 1.45634 19.8428 1.89268C18.6996 2.32902 17.7179 3.10594 17.0306 4.11836C16.3434 5.13078 15.9836 6.32986 16 7.55341V8.88674C13.6568 8.9475 11.335 8.42782 9.24135 7.374C7.14766 6.32018 5.34709 4.76492 4 2.84674C4 2.84674 -1.33333 14.8467 10.6667 20.1801C7.92071 22.044 4.64955 22.9786 1.33334 22.8467C13.3333 29.5134 28 22.8467 28 7.51341C27.9988 7.14201 27.9631 6.77153 27.8933 6.40674C29.2541 5.06473 30.2144 3.37036 30.6667 1.51341Z" stroke="#1E1E1E" stroke-width="3" stroke-linecap="round" stroke-linejoin="round"/>
</svg>
