<svg width="35" height="35" viewBox="0 0 35 35" fill="none" xmlns="http://www.w3.org/2000/svg">
<g clip-path="url(#clip0_13_146)">
<path d="M1.45825 1.45825H7.29158L11.1999 20.9853C11.3333 21.6567 11.6985 22.2599 12.2318 22.6891C12.765 23.1183 13.4322 23.3464 14.1166 23.3333H28.2916C28.976 23.3464 29.6432 23.1183 30.1764 22.6891C30.7096 22.2599 31.0749 21.6567 31.2082 20.9853L33.5416 8.74992H8.74992M14.5833 30.6249C14.5833 31.4303 13.9303 32.0833 13.1249 32.0833C12.3195 32.0833 11.6666 31.4303 11.6666 30.6249C11.6666 29.8195 12.3195 29.1666 13.1249 29.1666C13.9303 29.1666 14.5833 29.8195 14.5833 30.6249ZM30.6249 30.6249C30.6249 31.4303 29.972 32.0833 29.1666 32.0833C28.3612 32.0833 27.7083 31.4303 27.7083 30.6249C27.7083 29.8195 28.3612 29.1666 29.1666 29.1666C29.972 29.1666 30.6249 29.8195 30.6249 30.6249Z" stroke="#6A9997" stroke-width="4" stroke-linecap="round" stroke-linejoin="round"/>
</g>
<defs>
<clipPath id="clip0_13_146">
<rect width="35" height="35" fill="white"/>
</clipPath>
</defs>
</svg>
