<svg width="55" height="55" viewBox="0 0 55 55" fill="none" xmlns="http://www.w3.org/2000/svg">
<path d="M7.49375 15.9501L27.5 27.523L47.5063 15.9501M27.5 50.6001V27.5001M48.125 36.6668V18.3334C48.1242 17.5297 47.912 16.7403 47.5098 16.0444C47.1075 15.3486 46.5294 14.7707 45.8333 14.3689L29.7917 5.20218C29.0949 4.79991 28.3045 4.58813 27.5 4.58813C26.6955 4.58813 25.9051 4.79991 25.2083 5.20218L9.16667 14.3689C8.4706 14.7707 7.89245 15.3486 7.49022 16.0444C7.08799 16.7403 6.87582 17.5297 6.875 18.3334V36.6668C6.87582 37.4705 7.08799 38.2599 7.49022 38.9558C7.89245 39.6516 8.4706 40.2295 9.16667 40.6313L25.2083 49.798C25.9051 50.2003 26.6955 50.4121 27.5 50.4121C28.3045 50.4121 29.0949 50.2003 29.7917 49.798L45.8333 40.6313C46.5294 40.2295 47.1075 39.6516 47.5098 38.9558C47.912 38.2599 48.1242 37.4705 48.125 36.6668Z" stroke="#333333" stroke-width="4" stroke-linecap="round" stroke-linejoin="round"/>
</svg>
