<svg width="35" height="35" viewBox="0 0 35 35" fill="none" xmlns="http://www.w3.org/2000/svg">
<g clip-path="url(#clip0_12_145)">
<path d="M29.1667 17.5001V32.0834H5.83341V17.5001M17.5001 32.0834V10.2084M17.5001 10.2084H10.9376C9.97065 10.2084 9.04331 9.8243 8.35959 9.14057C7.67586 8.45685 7.29175 7.52952 7.29175 6.56258C7.29175 5.59565 7.67586 4.66831 8.35959 3.98459C9.04331 3.30086 9.97065 2.91675 10.9376 2.91675C16.0417 2.91675 17.5001 10.2084 17.5001 10.2084ZM17.5001 10.2084H24.0626C25.0295 10.2084 25.9568 9.8243 26.6406 9.14057C27.3243 8.45685 27.7084 7.52952 27.7084 6.56258C27.7084 5.59565 27.3243 4.66831 26.6406 3.98459C25.9568 3.30086 25.0295 2.91675 24.0626 2.91675C18.9584 2.91675 17.5001 10.2084 17.5001 10.2084ZM2.91675 10.2084H32.0834V17.5001H2.91675V10.2084Z" stroke="white" stroke-width="4" stroke-linecap="round" stroke-linejoin="round"/>
</g>
<defs>
<clipPath id="clip0_12_145">
<rect width="35" height="35" fill="white"/>
</clipPath>
</defs>
</svg>
