<svg width="35" height="35" viewBox="0 0 35 35" fill="none" xmlns="http://www.w3.org/2000/svg">
<g clip-path="url(#clip0_13_337)">
<path d="M29.1667 17.4998V32.0832H5.83341V17.4998M17.5001 32.0832V10.2082M17.5001 10.2082H10.9376C9.97065 10.2082 9.04331 9.82406 8.35959 9.14033C7.67586 8.4566 7.29175 7.52927 7.29175 6.56234C7.29175 5.5954 7.67586 4.66807 8.35959 3.98434C9.04331 3.30062 9.97065 2.9165 10.9376 2.9165C16.0417 2.9165 17.5001 10.2082 17.5001 10.2082ZM17.5001 10.2082H24.0626C25.0295 10.2082 25.9568 9.82406 26.6406 9.14033C27.3243 8.4566 27.7084 7.52927 27.7084 6.56234C27.7084 5.5954 27.3243 4.66807 26.6406 3.98434C25.9568 3.30062 25.0295 2.9165 24.0626 2.9165C18.9584 2.9165 17.5001 10.2082 17.5001 10.2082ZM2.91675 10.2082H32.0834V17.4998H2.91675V10.2082Z" stroke="#6A9997" stroke-width="4" stroke-linecap="round" stroke-linejoin="round"/>
</g>
<defs>
<clipPath id="clip0_13_337">
<rect width="35" height="35" fill="white"/>
</clipPath>
</defs>
</svg>
