<svg width="31" height="34" viewBox="0 0 31 34" fill="none" xmlns="http://www.w3.org/2000/svg">
<path d="M2 7.83333H4.91667M4.91667 7.83333H28.25M4.91667 7.83333V28.25C4.91667 29.0235 5.22396 29.7654 5.77094 30.3124C6.31792 30.8594 7.05979 31.1667 7.83333 31.1667H22.4167C23.1902 31.1667 23.9321 30.8594 24.4791 30.3124C25.026 29.7654 25.3333 29.0235 25.3333 28.25V7.83333M9.29167 7.83333V4.91667C9.29167 4.14312 9.59896 3.40125 10.1459 2.85427C10.6929 2.30729 11.4348 2 12.2083 2H18.0417C18.8152 2 19.5571 2.30729 20.1041 2.85427C20.651 3.40125 20.9583 4.14312 20.9583 4.91667V7.83333" stroke="#333333" stroke-width="4" stroke-linecap="round" stroke-linejoin="round"/>
</svg>
