<svg width="31" height="31" viewBox="0 0 31 31" fill="none" xmlns="http://www.w3.org/2000/svg">
<path d="M22.4167 7.75H22.43M8.41667 1.75H21.75C25.4319 1.75 28.4167 4.73477 28.4167 8.41667V21.75C28.4167 25.4319 25.4319 28.4167 21.75 28.4167H8.41667C4.73477 28.4167 1.75 25.4319 1.75 21.75V8.41667C1.75 4.73477 4.73477 1.75 8.41667 1.75ZM20.4167 14.2433C20.5812 15.353 20.3917 16.4863 19.875 17.482C19.3583 18.4778 18.5409 19.2852 17.5388 19.7896C16.5368 20.2939 15.4013 20.4695 14.2937 20.2912C13.1862 20.113 12.163 19.5901 11.3698 18.7969C10.5766 18.0037 10.0536 16.9805 9.87542 15.873C9.6972 14.7654 9.87275 13.6299 10.3771 12.6278C10.8814 11.6258 11.6889 10.8083 12.6846 10.2917C13.6804 9.77499 14.8137 9.58545 15.9233 9.75C17.0552 9.91785 18.1031 10.4453 18.9123 11.2544C19.7214 12.0635 20.2488 13.1114 20.4167 14.2433Z" stroke="white" stroke-width="3.5" stroke-linecap="round" stroke-linejoin="round"/>
</svg>
