<svg width="31" height="31" viewBox="0 0 31 31" fill="none" xmlns="http://www.w3.org/2000/svg">
<path d="M18.5008 6.58333C19.8031 6.83742 21 7.47434 21.9382 8.41258C22.8765 9.35082 23.5134 10.5477 23.7675 11.85M18.5008 1.25C21.2065 1.55058 23.7296 2.76223 25.6558 4.68601C27.582 6.60979 28.7968 9.13135 29.1008 11.8367M27.7675 22.4767V26.4767C27.769 26.848 27.6929 27.2156 27.5442 27.5558C27.3954 27.896 27.1772 28.2015 26.9036 28.4525C26.63 28.7035 26.3069 28.8946 25.9552 29.0136C25.6034 29.1326 25.2307 29.1768 24.8608 29.1433C20.7579 28.6975 16.8168 27.2955 13.3542 25.05C10.1326 23.0029 7.40127 20.2716 5.35416 17.05C3.10079 13.5716 1.69848 9.61133 1.26082 5.49C1.2275 5.12129 1.27132 4.74968 1.38949 4.39883C1.50766 4.04798 1.69758 3.72559 1.94718 3.45216C2.19677 3.17874 2.50056 2.96028 2.83921 2.8107C3.17786 2.66111 3.54394 2.58368 3.91416 2.58333H7.91416C8.56123 2.57696 9.18855 2.8061 9.67917 3.22804C10.1698 3.64998 10.4903 4.23593 10.5808 4.87667C10.7497 6.15676 11.0628 7.41364 11.5142 8.62333C11.6935 9.10057 11.7324 9.61922 11.626 10.1178C11.5197 10.6165 11.2726 11.0741 10.9142 11.4367L9.22082 13.13C11.1189 16.4681 13.8828 19.2319 17.2208 21.13L18.9142 19.4367C19.2767 19.0782 19.7344 18.8311 20.233 18.7248C20.7316 18.6185 21.2503 18.6573 21.7275 18.8367C22.9372 19.2881 24.1941 19.6012 25.4742 19.77C26.1218 19.8614 26.7134 20.1876 27.1362 20.6867C27.559 21.1857 27.7837 21.8228 27.7675 22.4767Z" stroke="white" stroke-width="2.5" stroke-linecap="round" stroke-linejoin="round"/>
</svg>
