<svg width="31" height="34" viewBox="0 0 31 34" fill="none" xmlns="http://www.w3.org/2000/svg">
<path d="M2.39375 9.23034L15.125 16.5949L27.8563 9.23034M15.125 31.2803V16.5803M28.25 22.4137V10.747C28.2495 10.2355 28.1145 9.73319 27.8585 9.29037C27.6025 8.84755 27.2346 8.47983 26.7917 8.22409L16.5833 2.39076C16.1399 2.13477 15.637 2 15.125 2C14.613 2 14.1101 2.13477 13.6667 2.39076L3.45833 8.22409C3.01538 8.47983 2.64747 8.84755 2.39151 9.29037C2.13554 9.73319 2.00052 10.2355 2 10.747V22.4137C2.00052 22.9252 2.13554 23.4275 2.39151 23.8703C2.64747 24.3131 3.01538 24.6809 3.45833 24.9366L13.6667 30.7699C14.1101 31.0259 14.613 31.1607 15.125 31.1607C15.637 31.1607 16.1399 31.0259 16.5833 30.7699L26.7917 24.9366C27.2346 24.6809 27.6025 24.3131 27.8585 23.8703C28.1145 23.4275 28.2495 22.9252 28.25 22.4137Z" stroke="#6A9997" stroke-width="4" stroke-linecap="round" stroke-linejoin="round"/>
</svg>
