<svg width="35" height="35" viewBox="0 0 35 35" fill="none" xmlns="http://www.w3.org/2000/svg">
<path d="M4.76875 10.1498L17.5 17.5144L30.2313 10.1498M17.5 32.1998V17.4998M30.625 23.3331V11.6664C30.6245 11.155 30.4895 10.6526 30.2335 10.2098C29.9775 9.76699 29.6096 9.39926 29.1667 9.14353L18.9583 3.31019C18.5149 3.0542 18.012 2.91943 17.5 2.91943C16.988 2.91943 16.4851 3.0542 16.0417 3.31019L5.83333 9.14353C5.39038 9.39926 5.02247 9.76699 4.76651 10.2098C4.51054 10.6526 4.37552 11.155 4.375 11.6664V23.3331C4.37552 23.8446 4.51054 24.3469 4.76651 24.7897C5.02247 25.2326 5.39038 25.6003 5.83333 25.856L16.0417 31.6894C16.4851 31.9453 16.988 32.0801 17.5 32.0801C18.012 32.0801 18.5149 31.9453 18.9583 31.6894L29.1667 25.856C29.6096 25.6003 29.9775 25.2326 30.2335 24.7897C30.4895 24.3469 30.6245 23.8446 30.625 23.3331Z" stroke="white" stroke-width="4" stroke-linecap="round" stroke-linejoin="round"/>
</svg>
