<svg width="35" height="30" viewBox="0 0 35 30" fill="none" xmlns="http://www.w3.org/2000/svg">
<path d="M24.7916 28V25.0833C24.7916 23.5362 24.177 22.0525 23.083 20.9585C21.9891 19.8646 20.5053 19.25 18.9583 19.25H7.29159C5.74449 19.25 4.26076 19.8646 3.1668 20.9585C2.07283 22.0525 1.45825 23.5362 1.45825 25.0833V28M33.5416 28V25.0833C33.5406 23.7909 33.1104 22.5353 32.3186 21.5138C31.5267 20.4923 30.418 19.7627 29.1666 19.4396M23.3333 1.93958C24.588 2.26086 25.7002 2.99061 26.4944 4.01379C27.2886 5.03697 27.7197 6.29538 27.7197 7.59062C27.7197 8.88587 27.2886 10.1443 26.4944 11.1675C25.7002 12.1906 24.588 12.9204 23.3333 13.2417M18.9583 7.58333C18.9583 10.805 16.3466 13.4167 13.1249 13.4167C9.90326 13.4167 7.29159 10.805 7.29159 7.58333C7.29159 4.36167 9.90326 1.75 13.1249 1.75C16.3466 1.75 18.9583 4.36167 18.9583 7.58333Z" stroke="white" stroke-width="3.5" stroke-linecap="round" stroke-linejoin="round"/>
</svg>
