<svg width="35" height="35" viewBox="0 0 35 35" fill="none" xmlns="http://www.w3.org/2000/svg">
<g clip-path="url(#clip0_184_163)">
<path d="M24.7916 30.625V27.7083C24.7916 26.1612 24.177 24.6775 23.083 23.5835C21.9891 22.4896 20.5053 21.875 18.9583 21.875H7.29159C5.74449 21.875 4.26076 22.4896 3.1668 23.5835C2.07283 24.6775 1.45825 26.1612 1.45825 27.7083V30.625M33.5416 30.625V27.7083C33.5406 26.4159 33.1104 25.1603 32.3186 24.1388C31.5267 23.1173 30.418 22.3877 29.1666 22.0646M23.3333 4.56458C24.588 4.88586 25.7002 5.61561 26.4944 6.63879C27.2886 7.66197 27.7197 8.92038 27.7197 10.2156C27.7197 11.5109 27.2886 12.7693 26.4944 13.7925C25.7002 14.8156 24.588 15.5454 23.3333 15.8667M18.9583 10.2083C18.9583 13.43 16.3466 16.0417 13.1249 16.0417C9.90326 16.0417 7.29159 13.43 7.29159 10.2083C7.29159 6.98667 9.90326 4.375 13.1249 4.375C16.3466 4.375 18.9583 6.98667 18.9583 10.2083Z" stroke="#6A9997" stroke-width="3.5" stroke-linecap="round" stroke-linejoin="round"/>
</g>
<defs>
<clipPath id="clip0_184_163">
<rect width="35" height="35" fill="white"/>
</clipPath>
</defs>
</svg>
